<?xml version="1.0" standalone="no"?>
<!DOCTYPE svg PUBLIC "-//W3C//DTD SVG 20010904//EN"
 "http://www.w3.org/TR/2001/REC-SVG-20010904/DTD/svg10.dtd">
<svg version="1.0" xmlns="http://www.w3.org/2000/svg"
 width="600.000000pt" height="600.000000pt" viewBox="0 0 600.000000 600.000000"
 preserveAspectRatio="xMidYMid meet">
<metadata>
Created by potrace 1.16, written by Peter Selinger 2001-2019
</metadata>
<g transform="translate(0.000000,600.000000) scale(0.100000,-0.100000)"
fill="#1a2744" stroke="none">
<path d="M3011 5473 c-15 -32 -60 -121 -99 -198 -39 -77 -92 -189 -118 -250
-49 -117 -333 -692 -412 -836 -26 -48 -80 -149 -121 -225 -41 -77 -85 -156
-97 -176 -13 -21 -24 -40 -24 -44 0 -3 -20 -39 -45 -78 -25 -40 -45 -76 -45
-79 0 -3 -25 -44 -55 -91 -29 -46 -98 -165 -151 -263 -89 -165 -162 -297 -184
-333 -8 -14 -106 -192 -155 -285 -73 -136 -191 -330 -299 -490 -36 -54 -66
-100 -66 -102 0 -5 -40 -62 -61 -88 -10 -11 -29 -42 -44 -70 -30 -54 -106
-162 -169 -239 -57 -69 -46 -81 70 -78 151 5 238 12 273 22 17 5 38 7 46 4 8
-3 63 -1 122 5 59 6 196 16 303 21 107 6 287 15 400 21 495 27 837 26 1225 -2
205 -14 208 -15 217 -65 8 -46 -1 -134 -13 -134 -5 0 -46 19 -90 42 -91 46
-116 49 -314 27 -104 -11 -121 -13 -320 -29 -154 -13 -241 -17 -570 -30 -357
-14 -409 -17 -413 -27 -2 -4 -17 -37 -35 -73 l-32 -65 -195 -3 c-188 -4 -409
9 -535 30 -104 17 -249 27 -259 17 -6 -5 -5 -17 1 -31 6 -13 17 -39 24 -58 48
-132 225 -420 346 -561 47 -56 52 -69 25 -69 -10 0 -22 -4 -28 -10 -5 -5 -29
-12 -54 -14 -25 -3 -85 -11 -135 -17 -94 -11 -86 -12 -275 37 -39 10 -93 13
-189 9 -73 -2 -136 -7 -139 -10 -4 -3 -2 -13 3 -21 8 -13 36 -15 149 -15 77 0
147 -4 156 -9 9 -5 28 -11 41 -14 13 -2 45 -9 72 -15 26 -6 96 -11 155 -12
117 -1 226 22 310 64 37 19 59 22 175 22 73 0 161 -3 197 -8 217 -25 447 -18
650 20 118 21 320 21 455 0 61 -10 175 -23 254 -29 127 -10 157 -9 252 7 136
22 254 14 553 -40 48 -8 147 -20 220 -25 72 -6 165 -17 208 -25 68 -14 88 -14
177 0 153 23 575 24 776 1 161 -18 296 -21 435 -11 104 8 120 12 120 34 0 17
-13 18 -262 17 -170 0 -300 4 -368 13 -162 21 -626 18 -682 -4 -22 -9 -23 8
-2 26 21 17 134 155 134 164 0 6 167 233 212 290 21 25 80 119 123 193 6 10
27 43 48 74 20 31 37 59 37 62 0 3 11 21 24 41 14 20 32 57 42 83 10 26 23 54
31 63 11 13 11 28 -1 90 -23 117 -131 467 -181 589 -13 30 -33 84 -45 120 -29
84 -73 201 -121 320 -120 299 -191 469 -210 503 -5 9 -19 43 -31 75 -11 31
-35 77 -53 102 -18 25 -65 113 -104 195 -39 83 -80 168 -92 190 -126 232 -132
242 -212 355 -10 14 -41 61 -70 105 -29 44 -64 96 -78 115 -14 19 -54 73 -88
120 -35 47 -86 110 -115 141 -28 31 -85 98 -126 149 -41 52 -132 150 -201 219
-138 137 -138 137 -154 281 -4 30 -17 99 -31 153 -13 54 -24 109 -24 122 0 73
-32 72 -69 -2z m46 -159 c7 -32 22 -120 33 -194 33 -207 73 -430 91 -507 6
-27 13 -57 14 -68 2 -11 11 -60 19 -110 73 -430 138 -943 165 -1310 12 -149
39 -411 48 -450 2 -11 11 -72 19 -135 8 -63 19 -149 25 -190 6 -41 15 -124 20
-185 4 -60 10 -132 13 -160 2 -27 8 -114 12 -192 l7 -143 -84 0 c-46 0 -163 7
-259 15 -133 11 -269 13 -565 9 -214 -4 -393 -8 -397 -10 -8 -5 -342 -22 -588
-30 -80 -2 -154 -7 -165 -10 -11 -3 -45 -7 -75 -10 -30 -2 -104 -9 -165 -14
-131 -13 -255 -18 -272 -12 -22 7 -15 25 40 97 29 39 64 88 77 110 13 22 84
131 157 242 73 111 133 204 133 208 0 4 22 39 49 78 26 40 65 104 86 142 87
158 148 272 167 310 12 22 30 53 41 69 11 16 32 52 47 80 15 28 46 83 68 121
23 39 67 120 98 180 31 61 77 142 102 180 82 127 163 268 239 415 42 80 92
174 113 210 116 199 403 777 485 975 53 131 168 355 180 352 6 -2 15 -30 22
-63z m293 -543 c45 -49 89 -99 98 -112 9 -13 52 -64 97 -114 91 -101 195 -233
249 -315 20 -30 42 -64 50 -75 7 -11 40 -60 72 -110 32 -49 72 -108 88 -130
17 -22 87 -153 155 -290 68 -138 138 -272 156 -300 39 -61 224 -480 250 -565
4 -14 21 -54 38 -90 29 -64 69 -169 109 -285 18 -53 53 -143 78 -200 5 -11 16
-43 24 -72 8 -28 19 -60 25 -70 23 -45 125 -412 116 -421 -3 -4 -15 0 -27 7
-11 7 -44 15 -72 17 -28 2 -85 9 -127 15 -87 13 -582 17 -707 7 -45 -4 -128
-12 -185 -19 -168 -20 -152 -26 -153 61 0 41 3 131 7 200 21 364 16 611 -21
870 -6 41 -15 116 -20 165 -8 81 -19 161 -51 370 -6 39 -12 81 -14 95 -16 109
-62 325 -93 443 -12 43 -28 112 -36 155 -8 42 -33 149 -55 237 -22 88 -42 171
-45 185 -10 56 -27 128 -41 175 -8 28 -30 101 -49 162 -41 136 -37 136 84 4z
m-46 -376 c20 -83 47 -195 60 -250 14 -55 34 -143 45 -195 12 -52 30 -129 40
-170 46 -179 63 -270 92 -466 17 -115 33 -222 35 -239 7 -43 12 -84 17 -130 3
-22 10 -83 16 -135 43 -374 44 -393 37 -610 -10 -329 -25 -584 -41 -698 -8
-56 -15 -105 -15 -107 0 -3 -3 -5 -8 -5 -4 0 -8 111 -9 247 -2 137 -7 309 -13
383 -16 208 -30 350 -40 405 -9 52 -13 75 -30 210 -6 44 -15 105 -20 135 -5
30 -14 129 -20 220 -6 91 -15 192 -20 225 -5 33 -14 123 -20 200 -6 77 -15
172 -21 210 -5 39 -11 97 -14 130 -3 33 -14 116 -25 185 -10 69 -26 179 -35
245 -16 112 -33 217 -39 240 -2 6 -6 28 -10 50 -4 22 -9 51 -12 65 -4 17 -2
22 5 15 5 -6 26 -78 45 -160z m1211 -2776 c77 0 167 -4 200 -9 33 -5 85 -11
116 -14 62 -6 89 -14 89 -27 0 -5 -2 -9 -4 -9 -4 0 -98 -13 -366 -50 -41 -6
-122 -20 -180 -30 -58 -11 -130 -22 -160 -26 -30 -3 -127 -18 -215 -34 -206
-37 -336 -53 -346 -43 -12 12 17 174 33 189 14 14 133 30 338 45 74 5 144 11
155 13 11 3 61 3 110 0 50 -2 153 -4 230 -5z m425 -118 c0 -44 -232 -416 -378
-607 -26 -34 -83 -110 -127 -170 -78 -107 -165 -204 -182 -204 -4 0 -35 5 -68
10 -33 6 -103 15 -155 20 -52 6 -126 14 -165 20 -38 5 -126 17 -195 25 -163
21 -214 30 -233 42 -18 11 -166 3 -237 -13 -87 -20 -282 -15 -415 9 -115 21
-355 40 -417 33 -111 -14 -265 -37 -308 -47 -49 -10 -372 -15 -387 -6 -12 8
-40 12 -180 28 -91 10 -128 10 -199 -1 l-88 -13 -16 24 c-8 13 -31 42 -51 64
-34 39 -156 207 -211 291 -37 58 -120 242 -114 253 6 10 86 4 131 -10 101 -30
646 -57 1040 -50 223 3 655 21 775 31 63 5 156 11 205 14 50 3 104 7 120 9 17
3 80 8 140 11 106 7 245 24 535 67 127 19 218 33 505 80 66 11 194 30 284 44
91 14 190 29 220 35 31 5 74 12 96 13 22 2 48 4 58 5 9 1 17 -2 17 -7z m-1596
-66 c15 -8 45 -24 65 -35 20 -11 50 -25 66 -31 l30 -12 -55 -13 c-30 -7 -84
-16 -120 -18 -148 -12 -354 -27 -495 -36 -314 -21 -1035 -47 -1035 -37 0 13
39 95 47 100 6 4 93 9 194 12 247 7 622 28 684 38 17 3 77 8 135 12 181 11
343 25 348 30 11 11 109 4 136 -10z"/>
<path d="M4035 1195 c-124 -36 -245 -52 -555 -74 -85 -7 -240 -18 -345 -26
-104 -8 -234 -15 -288 -15 -87 0 -98 -2 -95 -17 6 -30 64 -35 293 -24 252 13
413 25 730 56 114 12 206 29 300 57 106 32 125 42 125 64 0 21 -32 16 -165
-21z"/>
<path d="M1070 1105 c-21 -25 40 -54 150 -70 112 -17 846 -26 888 -11 14 5 22
14 20 24 -3 15 -40 17 -413 19 -405 2 -481 7 -582 36 -43 12 -54 13 -63 2z"/>
</g>
</svg>
