<?xml version="1.0" standalone="no"?>
<!DOCTYPE svg PUBLIC "-//W3C//DTD SVG 20010904//EN"
 "http://www.w3.org/TR/2001/REC-SVG-20010904/DTD/svg10.dtd">
<svg version="1.0" xmlns="http://www.w3.org/2000/svg"
 width="800.000000pt" height="800.000000pt" viewBox="0 0 800.000000 800.000000"
 preserveAspectRatio="xMidYMid meet">
<metadata>
Created by potrace 1.16, written by Peter Selinger 2001-2019
</metadata>
<g transform="translate(0.000000,800.000000) scale(0.100000,-0.100000)"
fill="#1a2744" stroke="none">
<path d="M7053 7509 c3 -24 10 -71 16 -104 10 -64 24 -264 27 -405 5 -204 -36
-445 -94 -556 -5 -11 -26 -52 -46 -91 -89 -179 -258 -385 -390 -475 -116 -80
-280 -149 -471 -198 -82 -22 -294 -50 -368 -50 -98 1 -312 48 -384 85 -24 13
-24 13 29 43 73 41 164 135 200 207 27 53 30 66 26 125 -9 115 -56 176 -166
214 -104 36 -258 2 -345 -74 -59 -52 -86 -109 -88 -186 -3 -99 22 -152 113
-241 43 -42 77 -77 76 -78 -12 -8 -103 -36 -143 -45 -27 -6 -57 -13 -66 -16
-11 -3 -19 7 -29 38 -35 107 -59 147 -146 233 -48 47 -109 97 -136 111 -74 38
-194 63 -274 57 -209 -14 -360 -94 -473 -248 -34 -46 -45 -69 -83 -164 l-13
-33 -85 6 c-47 4 -98 9 -115 11 -16 3 -77 10 -135 15 -58 6 -124 15 -147 20
-23 6 -72 10 -110 10 -37 0 -88 5 -113 11 -25 6 -79 15 -120 20 -41 4 -151 18
-245 29 -93 11 -215 25 -270 30 -55 5 -118 14 -140 20 -22 5 -79 10 -126 10
-48 0 -111 5 -140 10 -109 21 -472 -15 -644 -65 -125 -36 -149 -51 -126 -79 9
-11 22 -9 72 11 216 87 692 111 1049 51 36 -6 103 -14 150 -18 47 -5 162 -18
255 -30 434 -54 467 -58 585 -71 100 -10 148 -16 341 -45 l46 -6 6 -93 c4 -56
14 -113 27 -144 24 -62 84 -146 138 -192 l38 -34 -32 -55 c-17 -30 -53 -95
-79 -145 -26 -49 -52 -97 -59 -105 -7 -8 -17 -27 -24 -42 -14 -33 -12 -33
-157 46 -49 27 -108 58 -130 69 -22 11 -63 35 -92 54 -28 18 -56 33 -62 33 -8
0 -36 -45 -120 -195 -29 -52 -29 -52 139 -147 36 -20 99 -55 140 -76 41 -22
78 -45 83 -53 6 -10 -14 -55 -62 -143 -39 -72 -71 -133 -71 -137 0 -3 -12 -22
-27 -42 -16 -19 -36 -48 -45 -64 -10 -15 -31 -48 -47 -73 -16 -25 -55 -90 -87
-145 -31 -55 -67 -114 -80 -132 -13 -17 -24 -34 -24 -37 0 -2 -20 -34 -45 -70
-25 -37 -45 -69 -45 -72 0 -9 -64 -117 -109 -184 -21 -30 -54 -87 -74 -127
-21 -39 -55 -100 -77 -135 -36 -58 -77 -127 -120 -203 -10 -16 -42 -70 -73
-120 -31 -49 -84 -139 -118 -198 -64 -112 -111 -167 -142 -167 -19 0 -107 58
-107 70 0 4 -27 28 -60 53 -90 70 -197 246 -240 395 -43 148 -50 171 -74 282
-23 100 -52 358 -41 368 1 2 20 -5 42 -16 21 -11 56 -25 78 -32 22 -7 44 -16
48 -20 12 -11 47 0 46 14 0 6 -8 23 -17 38 -44 69 -195 287 -221 317 l-28 34
-31 -21 c-36 -26 -262 -311 -262 -331 0 -13 48 -13 145 1 22 3 24 -16 26 -197
0 -38 4 -89 9 -111 5 -23 12 -77 15 -120 4 -44 11 -106 17 -139 5 -33 12 -78
14 -99 3 -34 13 -75 44 -181 5 -16 11 -41 14 -55 7 -42 115 -276 170 -369 34
-59 95 -224 117 -321 7 -30 13 -108 13 -172 0 -115 1 -118 22 -118 13 0 25 4
28 9 15 24 142 81 208 95 43 8 168 17 303 21 127 3 255 10 285 15 30 5 100 12
155 14 91 4 139 13 350 60 110 25 255 79 340 128 11 6 61 33 111 59 123 64
141 75 196 127 l47 45 13 -29 c24 -56 79 -134 93 -134 23 0 43 51 115 295 5
17 19 58 31 93 32 93 29 94 -151 67 -63 -10 -156 -21 -207 -25 -51 -4 -99 -12
-107 -19 -22 -18 -8 -48 43 -92 l46 -40 -30 -24 c-76 -63 -338 -162 -525 -200
-47 -9 -105 -22 -130 -28 -25 -6 -117 -11 -205 -12 -154 0 -164 1 -257 32
-103 34 -130 47 -165 77 -31 26 -29 41 13 111 20 33 46 80 58 105 27 53 69
123 143 237 29 46 53 86 53 89 0 3 14 26 31 51 16 25 46 75 66 112 20 36 69
118 110 182 40 64 73 120 73 124 0 4 10 22 23 39 13 17 54 81 91 141 37 61 91
148 121 195 29 47 69 110 88 140 19 30 51 84 70 120 61 113 117 206 177 294 8
12 33 49 54 82 21 32 40 60 41 62 3 3 57 -26 123 -65 20 -13 48 -28 62 -35 14
-7 36 -20 50 -29 60 -40 166 -89 182 -83 10 3 34 33 53 67 19 34 40 69 45 77
17 26 40 82 40 96 0 7 -17 22 -37 32 -43 22 -186 101 -253 141 -25 15 -60 34
-78 42 -17 7 -32 18 -32 23 0 6 19 42 42 80 24 39 56 96 73 128 83 156 86 160
103 152 34 -14 159 -24 232 -18 111 9 204 48 273 113 67 63 157 214 171 288 3
15 10 50 16 78 7 33 7 67 0 104 -5 30 -9 55 -7 56 15 12 50 25 70 25 13 0 66
15 118 34 l95 34 50 -20 c27 -11 61 -26 76 -34 14 -8 34 -14 45 -14 10 0 38
-8 63 -17 69 -25 425 -25 535 1 231 53 425 129 557 218 71 48 231 211 292 298
124 176 214 373 237 515 6 33 13 76 17 95 9 47 9 396 0 485 -23 226 -41 314
-67 323 -11 4 -13 -5 -8 -39z m-1589 -1270 c57 -33 80 -81 80 -164 1 -48 -5
-80 -17 -103 -30 -55 -137 -152 -207 -187 -73 -36 -70 -37 -157 34 -170 137
-153 348 33 421 72 28 220 28 268 -1z m-892 -210 c34 -11 76 -28 93 -36 35
-19 195 -179 195 -196 0 -7 11 -34 25 -62 37 -76 35 -81 -38 -94 -35 -6 -66
-11 -69 -11 -3 0 -21 33 -40 73 -19 39 -47 86 -62 104 -28 33 -112 86 -156 98
-14 3 -35 11 -47 17 -35 17 -147 -6 -228 -46 -104 -52 -143 -89 -182 -172 -29
-65 -33 -82 -33 -161 0 -63 6 -104 19 -141 34 -93 113 -180 200 -220 51 -24
66 -26 169 -24 134 2 184 22 252 99 70 79 100 159 100 265 0 31 4 59 9 62 5 3
40 9 78 12 l70 7 6 -62 c11 -127 -60 -312 -161 -417 -40 -41 -127 -86 -202
-105 -63 -15 -188 -16 -216 -1 -10 5 -40 12 -66 16 l-46 7 -37 -68 c-21 -37
-52 -96 -70 -129 -18 -34 -56 -101 -85 -148 -29 -48 -50 -92 -47 -99 2 -7 22
-18 43 -26 22 -7 68 -30 104 -50 36 -21 109 -62 163 -91 91 -50 98 -56 92 -80
-4 -14 -15 -34 -26 -46 -10 -11 -19 -27 -19 -35 0 -8 -10 -27 -23 -43 l-23
-28 -49 25 c-49 24 -99 51 -133 72 -9 6 -54 32 -99 59 -46 26 -85 52 -89 57
-11 19 -54 9 -63 -13 -10 -25 -74 -123 -98 -151 -9 -9 -21 -26 -27 -36 -6 -11
-40 -68 -76 -128 -35 -59 -74 -126 -86 -148 -47 -88 -67 -121 -83 -140 -10
-11 -21 -28 -24 -37 -3 -10 -35 -62 -70 -115 -35 -54 -72 -112 -83 -130 -10
-18 -50 -84 -89 -148 -38 -64 -82 -135 -97 -158 -34 -54 -74 -120 -105 -177
-14 -25 -35 -61 -48 -80 -58 -90 -153 -246 -185 -304 -19 -35 -42 -72 -52 -82
-9 -11 -23 -37 -33 -59 -9 -22 -34 -68 -57 -102 -35 -55 -39 -67 -33 -100 11
-60 40 -84 160 -132 182 -74 360 -78 657 -17 84 17 164 38 218 57 19 6 55 18
80 26 54 17 64 21 160 67 44 20 99 56 130 85 46 43 52 52 41 65 -8 9 -18 16
-23 16 -14 0 -68 40 -68 49 0 8 19 11 210 30 52 5 107 14 123 20 15 6 27 7 27
4 0 -7 -20 -65 -40 -118 -4 -11 -15 -47 -25 -80 -46 -156 -49 -158 -92 -58
-25 58 -52 57 -122 -5 -29 -26 -76 -60 -104 -76 -302 -167 -369 -196 -547
-236 -52 -12 -117 -28 -144 -36 -26 -8 -68 -14 -91 -14 -24 0 -55 -4 -68 -9
-14 -5 -152 -15 -308 -21 -156 -6 -295 -13 -309 -14 -14 -2 -63 -7 -110 -11
-70 -6 -99 -14 -164 -46 -43 -21 -80 -39 -81 -39 -2 0 -3 28 -4 62 -1 91 -19
210 -42 275 -11 32 -24 72 -29 89 -6 16 -48 106 -95 198 -81 161 -141 298
-149 341 -2 11 -9 40 -16 65 -7 25 -14 54 -16 65 -16 84 -25 139 -29 195 -3
36 -10 101 -15 145 -6 44 -13 141 -16 215 -9 210 -10 219 -18 227 -3 4 -27 2
-51 -5 -60 -16 -68 -15 -50 6 26 29 99 123 121 156 29 43 49 57 67 50 8 -3 41
-47 73 -97 32 -51 66 -103 76 -116 30 -40 21 -41 -51 -9 -100 44 -104 40 -98
-85 9 -185 52 -399 129 -647 31 -100 141 -288 199 -342 20 -18 57 -52 82 -75
25 -23 63 -53 85 -68 63 -42 151 -35 177 14 6 10 26 44 45 75 60 98 79 130 90
154 5 13 21 38 35 56 14 18 25 36 25 40 0 4 11 22 24 39 13 18 43 68 66 112
24 44 50 89 60 100 20 23 130 219 130 231 0 9 46 82 78 124 10 14 37 59 60
100 41 76 87 152 155 254 20 31 60 98 89 149 28 51 61 106 72 122 12 17 26 37
31 46 6 9 27 42 49 74 43 65 174 302 195 353 17 41 14 44 -84 97 -38 21 -75
41 -81 46 -5 5 -46 27 -90 49 -43 22 -90 49 -103 60 l-23 20 28 44 c16 24 37
58 46 76 15 26 22 30 40 24 13 -3 28 -10 34 -15 10 -8 124 -69 209 -112 22
-11 57 -30 77 -44 21 -13 38 -20 38 -17 0 4 9 -1 20 -11 35 -32 36 -30 172
225 22 41 45 82 52 90 43 55 65 150 34 150 -13 0 -127 123 -145 156 -51 97
-56 232 -14 350 60 170 184 289 361 345 82 26 243 25 322 -2z m-35 -186 c31
-15 73 -44 93 -64 36 -37 88 -134 78 -145 -3 -3 -39 -10 -80 -16 -63 -9 -200
-7 -373 6 -22 2 -69 4 -104 5 -63 1 -63 1 -57 27 18 72 86 137 198 189 76 35
167 35 245 -2z m186 -327 c-3 -117 -74 -240 -165 -287 -30 -15 -59 -19 -150
-19 -107 0 -116 2 -164 30 -28 16 -65 46 -81 67 -61 79 -73 108 -80 190 l-6
78 324 0 324 0 -2 -59z"/>
<path d="M490 161 c0 -20 5 -30 13 -28 7 1 13 -10 15 -25 6 -51 23 -29 20 25
-3 45 -6 52 -25 55 -20 3 -23 -1 -23 -27z"/>
<path d="M492 25 c0 -17 2 -22 5 -12 2 9 2 23 0 30 -3 6 -5 -1 -5 -18z"/>
</g>
</svg>
