<?xml version="1.0" standalone="no"?>
<!DOCTYPE svg PUBLIC "-//W3C//DTD SVG 20010904//EN"
 "http://www.w3.org/TR/2001/REC-SVG-20010904/DTD/svg10.dtd">
<svg version="1.0" xmlns="http://www.w3.org/2000/svg"
 width="600.000000pt" height="600.000000pt" viewBox="0 0 600.000000 600.000000"
 preserveAspectRatio="xMidYMid meet">
<metadata>
Created by potrace 1.16, written by Peter Selinger 2001-2019
</metadata>
<g transform="translate(0.000000,600.000000) scale(0.100000,-0.100000)"
fill="#1a2744" stroke="none">
<path d="M2962 5758 c-5 -7 -20 -46 -32 -86 -21 -65 -27 -75 -57 -87 -60 -25
-109 -72 -137 -131 -29 -61 -61 -173 -70 -243 -3 -24 -7 -45 -8 -46 -2 -1 -19
-11 -39 -23 -35 -21 -36 -24 -31 -70 2 -26 11 -62 18 -81 29 -69 27 -71 -91
-91 -38 -7 -81 -18 -95 -25 -37 -19 -54 -88 -46 -182 6 -68 14 -91 45 -143 5
-8 22 -40 37 -70 15 -30 35 -71 45 -90 14 -29 16 -45 8 -95 -5 -33 -16 -114
-25 -180 -8 -66 -17 -130 -20 -143 -2 -12 -8 -52 -13 -90 -5 -37 -17 -101 -25
-142 -32 -157 -46 -239 -61 -355 -9 -66 -25 -176 -36 -245 -11 -69 -26 -168
-34 -220 -8 -52 -16 -110 -20 -128 -5 -31 -34 -236 -55 -392 -5 -36 -16 -105
-25 -155 -24 -133 -32 -194 -49 -360 -9 -82 -25 -217 -35 -300 -11 -82 -32
-253 -46 -380 -31 -275 -30 -268 -58 -474 -20 -142 -25 -165 -42 -171 -11 -4
-70 -10 -131 -12 -99 -5 -119 -9 -183 -38 -51 -24 -71 -38 -71 -51 0 -26 19
-24 82 9 45 23 70 28 173 34 66 4 138 9 160 11 41 3 139 -26 165 -49 28 -24
75 -36 140 -35 71 0 124 -13 214 -53 66 -29 86 -32 86 -12 0 20 -18 32 -101
66 -58 25 -96 33 -174 39 -71 5 -110 13 -133 26 -17 11 -32 22 -32 26 0 8 145
94 193 114 20 8 49 15 64 15 42 0 202 -46 313 -90 89 -36 144 -49 152 -37 10
17 0 27 -46 47 l-41 17 40 12 c22 6 72 14 110 17 67 6 74 5 145 -31 41 -21
101 -57 132 -80 32 -24 72 -46 90 -50 38 -8 128 -54 128 -66 0 -4 -29 -33 -65
-65 -61 -53 -76 -82 -49 -91 6 -2 58 41 116 96 95 89 113 102 173 120 37 12
84 21 104 21 21 0 62 7 92 16 30 10 70 17 89 16 48 -1 358 -50 394 -62 35 -12
123 -13 130 -2 11 18 -12 30 -64 35 -30 3 -82 13 -114 21 -33 9 -94 20 -135
26 -42 5 -94 14 -116 20 -22 5 -61 10 -87 10 l-47 0 -5 43 c-6 51 -25 303 -30
407 -8 159 -36 508 -46 580 -10 75 -25 216 -34 340 -3 36 -13 137 -21 225 -8
88 -20 210 -25 270 -6 61 -14 137 -20 170 -16 101 -24 183 -40 420 -6 83 -15
204 -20 270 -5 66 -16 228 -25 360 -8 132 -20 283 -26 335 -6 52 -12 118 -14
145 -6 71 -17 150 -30 215 -3 15 7 58 26 105 54 137 60 167 64 321 l2 110 -81
37 c-45 19 -105 39 -134 43 -52 7 -60 12 -43 30 5 5 11 33 14 62 6 54 -1 69
-46 97 -12 7 -21 41 -32 120 -31 208 -76 295 -173 331 -64 24 -68 28 -81 81
-23 89 -52 123 -79 91z m42 -120 c6 -25 4 -28 -19 -28 -28 0 -29 4 -14 50 13
35 21 29 33 -22z m140 -112 c47 -36 68 -82 95 -211 26 -125 27 -149 4 -140
-102 39 -335 43 -507 9 l-29 -6 7 43 c24 157 67 255 129 297 60 41 62 42 168
39 88 -2 98 -4 133 -31z m25 -382 c31 -7 76 -23 101 -36 25 -12 46 -22 46 -23
1 0 4 -13 8 -30 10 -48 -3 -58 -50 -41 -106 37 -376 45 -519 16 -107 -23 -110
-22 -113 31 l-3 46 53 18 c29 10 78 21 108 25 85 12 306 8 369 -6z m-109 -290
l0 -144 -39 0 -38 0 -7 113 c-4 61 -8 126 -9 144 -2 31 -1 32 38 35 22 2 43 2
48 0 4 -2 7 -68 7 -148z m-137 64 c4 -46 7 -112 7 -147 l0 -63 -31 6 c-17 3
-39 6 -49 6 -14 0 -19 15 -29 88 -12 99 -14 175 -4 185 3 4 27 7 53 7 l47 0 6
-82z m285 57 c16 -14 20 -231 6 -245 -5 -4 -30 -10 -56 -13 l-48 -5 0 42 c0
22 -2 86 -3 142 l-2 101 45 -5 c25 -2 51 -10 58 -17z m-440 -47 c1 -29 5 -85
8 -125 6 -66 5 -71 -12 -68 -11 2 -28 4 -39 4 -43 2 -49 16 -55 120 -5 101 -5
101 20 110 14 5 37 10 51 10 24 1 26 -2 27 -51z m542 13 c5 -11 10 -60 10
-110 0 -90 0 -91 -25 -91 -24 0 -25 2 -25 64 0 35 -3 84 -6 110 -6 42 -5 46
14 46 12 0 26 -9 32 -19z m159 -57 c28 -9 58 -25 66 -34 15 -17 12 -20 -42
-45 -81 -39 -115 -48 -125 -32 -9 15 -11 111 -1 120 11 11 48 8 102 -9z m-842
-66 c1 -38 -2 -48 -15 -48 -29 0 -183 51 -178 59 4 6 41 16 131 35 51 10 60 3
62 -46z m953 -63 c0 -74 -20 -134 -54 -160 -18 -14 -36 -25 -39 -25 -4 0 -7
38 -7 84 0 81 1 85 28 104 26 19 49 30 65 31 4 1 7 -15 7 -34z m-1076 -92 c3
-47 5 -88 3 -90 -2 -2 -22 10 -44 26 -38 27 -40 32 -47 95 -4 37 -4 71 -1 76
3 4 22 2 44 -7 l38 -15 7 -85z m144 46 c21 -8 22 -14 22 -104 0 -52 -3 -95 -7
-95 -4 0 -26 7 -49 16 -34 13 -43 22 -53 54 -6 20 -11 63 -11 94 l0 57 38 -7
c20 -4 47 -11 60 -15z m788 -71 c-4 -51 -10 -96 -14 -100 -4 -4 -19 -10 -34
-13 l-27 -7 0 95 c0 95 0 96 27 106 55 20 55 19 48 -81z m-644 42 l47 -12 0
-100 -1 -100 -45 5 c-65 7 -71 18 -73 122 -2 109 -3 105 13 101 6 -2 33 -10
59 -16z m522 -12 c9 -35 7 -124 -3 -151 -10 -24 -17 -29 -71 -41 l-26 -5 1
104 c0 114 -2 110 66 114 20 1 28 -5 33 -21z m-349 -8 l43 0 7 -84 c10 -120 7
-126 -65 -126 -70 0 -70 0 -70 119 0 91 4 105 28 96 7 -3 33 -5 57 -5z m200
-12 c11 -50 9 -156 -3 -174 -4 -6 -28 -14 -54 -18 l-48 -7 0 108 0 108 50 3
c44 2 50 0 55 -20z m351 -174 c-13 -36 -32 -71 -42 -78 -22 -14 -181 -68 -269
-91 -97 -25 -239 -30 -315 -11 -36 8 -78 18 -93 20 -56 9 -142 38 -196 66 -54
27 -91 69 -91 103 0 8 -7 20 -15 27 -31 26 -5 20 86 -20 52 -23 114 -45 139
-50 25 -5 56 -12 70 -16 107 -27 306 -28 418 -3 79 18 204 61 262 90 30 15 58
28 62 29 4 0 -4 -29 -16 -66z m-871 -164 c58 -27 207 -61 305 -69 114 -9 244
10 399 60 68 21 125 38 126 37 5 -8 25 -147 35 -238 6 -58 12 -119 14 -136 4
-29 0 -33 -57 -62 -200 -101 -537 -104 -876 -8 -85 24 -86 27 -72 148 7 57 14
110 15 118 1 8 6 42 10 75 12 103 14 107 39 100 12 -4 40 -15 62 -25z m147
-506 c133 -24 163 -26 310 -21 177 5 289 27 379 73 27 13 50 24 51 24 2 0 3
-10 4 -22 0 -13 6 -95 13 -183 6 -88 14 -187 16 -220 12 -179 15 -225 17 -274
l2 -54 -75 -27 c-115 -43 -230 -53 -525 -47 -275 6 -294 8 -489 71 -112 36
-118 41 -106 96 5 25 12 79 15 120 4 41 13 111 21 155 53 291 67 361 70 372 3
8 26 4 77 -12 40 -13 139 -36 220 -51z m-367 -704 c60 -26 244 -76 315 -86 19
-3 134 -8 254 -11 277 -6 445 14 577 71 15 6 17 -6 23 -101 7 -121 23 -277 37
-369 18 -116 18 -116 -58 -152 -69 -32 -222 -69 -303 -74 -32 -2 -46 -8 -48
-19 -5 -26 21 -29 130 -13 123 18 195 37 243 65 46 28 64 20 64 -28 0 -21 4
-81 10 -133 10 -87 27 -267 50 -525 5 -55 6 -103 3 -106 -10 -10 -204 -56
-312 -74 -107 -19 -481 -23 -585 -6 -46 7 -63 6 -74 -4 -34 -33 14 -42 254
-51 197 -8 374 7 560 47 77 16 147 30 155 32 11 1 17 -12 22 -53 8 -64 36
-437 43 -560 9 -174 15 -267 23 -338 9 -84 4 -92 -65 -92 -53 0 -177 -36 -229
-66 l-44 -26 -54 31 c-29 17 -62 31 -72 31 -19 1 -65 26 -120 68 l-31 24 -7
161 c-16 356 -31 429 -101 497 -62 60 -206 70 -302 22 -52 -27 -104 -106 -126
-192 -9 -36 -19 -121 -23 -190 -3 -69 -7 -146 -8 -172 -2 -27 -5 -51 -9 -54
-3 -3 -39 4 -79 17 -127 39 -175 29 -333 -66 -84 -51 -107 -58 -144 -50 -29 6
-30 6 -25 68 3 34 10 89 15 122 16 92 28 190 39 300 5 55 12 114 16 130 3 17
9 68 14 115 18 180 33 280 42 280 5 0 18 -5 28 -10 28 -15 255 -60 302 -60 35
0 39 2 36 23 -3 20 -10 23 -73 28 -38 4 -92 12 -120 18 -27 7 -66 16 -85 20
-19 5 -47 14 -61 21 -23 11 -26 17 -23 49 2 20 11 99 19 176 20 187 51 414 64
462 5 21 12 61 16 90 l7 52 41 -13 c23 -7 58 -20 77 -29 149 -66 553 -116 590
-72 23 28 0 34 -128 34 -70 0 -150 5 -178 10 -100 19 -250 62 -319 90 -86 35
-83 1 -36 326 11 77 22 149 24 160 2 11 9 55 17 98 7 42 14 77 16 77 1 0 23
-9 49 -20z m608 -1877 c75 -44 107 -177 107 -450 l0 -162 -56 26 c-53 24 -64
25 -154 20 -62 -4 -115 -13 -150 -27 -45 -18 -58 -19 -82 -9 l-30 12 5 121
c14 337 47 434 167 486 37 15 155 4 193 -17z"/>
</g>
</svg>
