<?xml version="1.0" standalone="no"?>
<!DOCTYPE svg PUBLIC "-//W3C//DTD SVG 20010904//EN"
 "http://www.w3.org/TR/2001/REC-SVG-20010904/DTD/svg10.dtd">
<svg version="1.0" xmlns="http://www.w3.org/2000/svg"
 width="600.000000pt" height="600.000000pt" viewBox="0 0 600.000000 600.000000"
 preserveAspectRatio="xMidYMid meet">
<metadata>
Created by potrace 1.16, written by Peter Selinger 2001-2019
</metadata>
<g transform="translate(0.000000,600.000000) scale(0.100000,-0.100000)"
fill="#1a2744" stroke="none">
<path d="M4450 4740 c-164 -19 -248 -29 -280 -35 -91 -17 -169 -39 -211 -61
-26 -13 -57 -25 -70 -28 -36 -7 -93 -28 -103 -37 -6 -5 -18 -9 -28 -9 -14 0
-244 -113 -461 -227 -20 -11 -31 -12 -40 -4 -56 46 -460 211 -586 240 -178 40
-221 45 -411 49 -192 4 -268 -3 -387 -33 -57 -15 -272 -118 -288 -139 -5 -7
-23 -20 -40 -29 -71 -37 -261 -256 -311 -357 -38 -78 -81 -201 -89 -254 -2
-17 -9 -47 -14 -66 -19 -60 -13 -183 14 -298 29 -124 50 -179 118 -316 57
-114 64 -94 -55 -174 -35 -23 -79 -54 -98 -67 -19 -14 -69 -47 -110 -75 -41
-27 -90 -62 -108 -77 -18 -15 -73 -51 -122 -79 -49 -28 -95 -55 -102 -61 -14
-12 -261 -155 -320 -186 -36 -18 -46 -35 -32 -50 9 -9 105 42 364 194 157 93
198 119 390 254 36 25 97 67 135 92 39 25 82 55 97 66 l27 20 19 -23 c10 -12
31 -48 48 -79 16 -31 32 -58 35 -61 3 -3 18 -23 32 -45 15 -22 33 -49 41 -60
7 -11 38 -58 69 -105 31 -47 79 -119 107 -160 47 -67 50 -76 35 -85 -26 -14
-121 -80 -228 -156 -51 -36 -119 -81 -152 -99 -33 -18 -91 -56 -130 -84 -81
-60 -201 -135 -262 -162 -39 -18 -56 -45 -35 -58 5 -3 42 14 83 37 41 23 99
56 128 72 29 17 84 53 122 82 37 29 83 60 101 69 43 22 222 142 273 184 39 31
134 84 140 78 2 -2 19 -23 40 -48 83 -102 150 -173 336 -359 213 -213 306
-301 319 -301 4 0 14 -7 21 -16 13 -16 158 -130 190 -149 181 -109 329 -171
474 -198 99 -17 122 -18 223 -8 166 17 188 23 342 95 80 37 286 156 360 207
98 69 113 80 212 155 51 39 107 78 123 87 17 8 41 27 54 41 14 14 29 26 35 26
6 0 44 32 84 70 40 39 77 70 81 70 4 0 30 -22 57 -48 27 -27 105 -98 174 -157
69 -60 148 -133 177 -163 35 -37 57 -53 67 -49 9 4 16 10 16 14 -1 16 -89 105
-202 205 -236 208 -491 442 -607 558 -53 53 -187 176 -255 235 -139 120 -294
265 -492 460 -111 110 -175 169 -271 249 l-82 69 87 59 c129 88 146 99 282
178 69 40 134 81 145 91 11 9 47 32 80 50 33 17 67 38 75 45 22 18 126 51 201
64 35 6 82 15 104 20 22 5 84 10 138 10 176 0 259 -48 310 -181 28 -71 28 -73
18 -189 -9 -103 -14 -125 -47 -193 l-37 -78 -76 73 c-42 40 -91 90 -109 110
-37 40 -125 127 -296 287 -100 94 -133 114 -143 85 -2 -6 85 -95 194 -198 109
-102 233 -223 275 -269 42 -45 159 -160 260 -255 101 -95 211 -200 245 -233
73 -70 198 -178 268 -234 28 -22 52 -42 55 -46 7 -8 106 -87 155 -123 22 -16
58 -46 81 -65 83 -73 109 -93 146 -114 31 -18 39 -20 50 -9 11 12 9 17 -12 30
-13 10 -67 52 -120 95 -52 43 -119 97 -148 120 -53 43 -111 90 -170 139 l-33
28 35 47 c19 27 45 61 58 77 13 16 32 44 43 61 11 18 36 57 57 87 61 91 145
259 182 365 64 185 84 368 61 563 -18 153 -35 219 -85 327 -133 284 -313 437
-585 494 -84 17 -405 51 -445 47 -8 0 -44 -4 -80 -8z m330 -54 c83 -5 104 -9
242 -40 153 -35 270 -116 381 -262 122 -163 181 -309 203 -508 34 -316 -32
-569 -234 -888 -31 -50 -62 -97 -67 -106 -21 -35 -126 -172 -131 -172 -14 0
-173 145 -411 375 l-145 141 32 54 c49 84 73 194 68 320 -4 93 -8 112 -36 170
-18 35 -44 77 -59 92 -32 34 -142 78 -208 85 -111 10 -410 -39 -500 -83 -57
-28 -60 -30 -170 -100 -44 -28 -93 -59 -110 -68 -16 -10 -59 -35 -95 -56 -36
-21 -83 -49 -105 -61 -22 -12 -65 -41 -95 -64 -59 -45 -241 -165 -510 -336
-63 -40 -135 -90 -160 -110 -25 -20 -69 -51 -97 -69 -29 -17 -53 -36 -53 -40
0 -5 -8 -11 -19 -15 -10 -3 -30 -17 -45 -30 l-26 -24 -34 42 c-209 254 -303
415 -322 550 -5 29 -3 37 10 37 18 0 175 103 251 165 50 40 124 88 275 175 41
24 89 54 106 67 17 13 34 23 37 23 11 0 170 102 217 139 71 57 102 77 171 111
35 18 78 43 94 55 17 13 41 26 54 30 13 4 49 22 80 40 109 63 353 186 394 200
95 30 188 65 219 81 47 24 156 51 262 64 50 6 109 15 131 19 40 8 240 6 405
-3z m-2270 -120 c224 -42 370 -92 593 -203 l108 -54 -28 -23 c-15 -12 -55 -37
-89 -55 -34 -18 -91 -56 -127 -84 -36 -29 -102 -74 -147 -102 -45 -27 -120
-74 -167 -104 l-86 -53 -78 17 c-75 17 -82 17 -146 1 -90 -23 -110 -32 -155
-68 -76 -60 -168 -237 -168 -322 0 -42 34 -155 67 -221 45 -88 139 -224 283
-406 102 -129 354 -391 448 -466 26 -21 56 -47 67 -60 53 -59 198 -169 272
-205 79 -39 87 -41 182 -42 l99 -1 104 52 c108 56 170 104 475 371 15 12 30
22 35 22 10 0 182 -154 323 -290 55 -53 131 -126 168 -162 l69 -65 -57 -54
c-31 -30 -98 -84 -148 -121 -51 -37 -128 -94 -172 -127 -164 -124 -190 -143
-305 -211 -19 -11 -51 -30 -70 -42 -51 -30 -229 -121 -275 -139 -156 -63 -426
-67 -578 -8 -57 22 -254 117 -302 146 -104 62 -320 250 -539 468 -192 191
-297 307 -359 396 -116 168 -247 362 -247 366 0 2 -28 46 -63 96 -78 115 -209
355 -259 477 -6 14 -14 32 -18 40 -4 8 -15 51 -24 95 -10 44 -21 91 -24 104
-4 14 -4 81 0 150 8 144 40 258 110 394 57 109 246 300 373 374 101 60 221
109 297 122 89 15 473 12 558 -3z m-23 -710 c5 -5 -1 -13 -11 -20 -50 -29
-153 -100 -273 -188 -141 -103 -145 -103 -100 -4 60 130 129 190 252 220 29 7
124 1 132 -8z m743 -541 c55 -35 227 -190 425 -384 94 -91 212 -202 263 -246
50 -43 92 -82 92 -86 0 -8 -150 -145 -243 -223 -103 -86 -179 -137 -261 -178
-79 -38 -84 -39 -171 -36 -82 3 -98 7 -167 41 -100 50 -366 284 -571 501
l-149 158 109 70 c59 39 128 88 153 108 25 20 72 54 105 74 33 20 125 79 205
131 80 52 151 94 158 95 7 0 30 -11 52 -25z"/>
<path d="M3371 4232 c-98 -68 -165 -110 -236 -152 -38 -22 -86 -51 -107 -63
-55 -33 -191 -117 -208 -127 -8 -5 -71 -44 -140 -86 -124 -76 -199 -125 -316
-206 -34 -24 -76 -51 -93 -60 -34 -19 -40 -35 -15 -45 19 -7 95 34 199 108 44
31 96 66 115 77 19 10 73 43 120 72 47 29 111 69 143 89 32 20 79 50 106 66
26 17 103 63 172 104 68 41 150 91 181 113 31 21 60 38 63 38 16 0 116 83 112
93 -7 23 -43 15 -96 -21z"/>
<path d="M3475 4156 c-93 -49 -180 -103 -320 -196 -55 -37 -129 -85 -165 -107
-159 -98 -318 -201 -343 -223 -28 -24 -68 -54 -174 -126 -54 -38 -70 -61 -54
-77 10 -10 192 105 251 159 22 20 212 143 330 214 25 15 99 63 165 107 153
101 285 183 355 220 37 19 55 35 55 47 0 30 -14 27 -100 -18z"/>
<path d="M3545 4078 c-27 -18 -86 -55 -130 -84 -44 -28 -152 -98 -240 -154
-461 -296 -554 -360 -555 -382 0 -32 35 -20 115 37 42 30 78 55 81 55 2 0 105
66 228 148 124 81 254 165 291 187 36 22 88 56 116 75 27 19 77 52 110 74 38
24 59 44 57 54 -5 25 -20 23 -73 -10z"/>
<path d="M4364 2756 c-5 -13 167 -188 312 -317 33 -30 114 -101 179 -159 65
-58 144 -127 175 -155 242 -215 246 -219 265 -211 25 9 18 21 -42 72 -32 27
-87 76 -123 109 -84 76 -296 265 -420 374 -52 46 -144 132 -203 192 -105 106
-132 124 -143 95z"/>
<path d="M4557 2686 c-4 -9 33 -50 97 -111 57 -53 108 -100 113 -104 6 -3 50
-43 99 -87 49 -45 121 -108 161 -140 40 -33 118 -99 174 -149 126 -112 122
-110 145 -101 22 9 9 22 -236 236 -85 74 -182 161 -215 192 -33 31 -73 67 -90
79 -16 12 -71 62 -121 111 -90 86 -116 102 -127 74z"/>
<path d="M4277 2666 c-6 -14 95 -115 219 -219 38 -32 105 -93 149 -135 222
-212 369 -342 384 -342 13 0 14 29 3 47 -4 6 -51 49 -104 95 -53 46 -163 146
-245 223 -82 77 -176 163 -208 192 -33 28 -85 74 -115 102 -57 53 -74 60 -83
37z"/>
</g>
</svg>
