<?xml version="1.0" standalone="no"?>
<!DOCTYPE svg PUBLIC "-//W3C//DTD SVG 20010904//EN"
 "http://www.w3.org/TR/2001/REC-SVG-20010904/DTD/svg10.dtd">
<svg version="1.0" xmlns="http://www.w3.org/2000/svg"
 width="800.000000pt" height="687.000000pt" viewBox="0 0 800.000000 687.000000"
 preserveAspectRatio="xMidYMid meet">
<metadata>
Created by potrace 1.16, written by Peter Selinger 2001-2019
</metadata>
<g transform="translate(0.000000,687.000000) scale(0.100000,-0.100000)"
fill="#ffffff" stroke="none">
<path d="M5860 6313 c-151 -6 -424 -37 -470 -53 -14 -5 -59 -19 -100 -31 -193
-56 -432 -170 -528 -251 -18 -15 -39 -28 -46 -28 -8 0 -49 -11 -92 -24 -251
-75 -292 -88 -321 -101 -17 -8 -36 -15 -43 -15 -13 0 -72 -30 -180 -91 -141
-79 -166 -93 -203 -111 -20 -10 -47 -23 -60 -28 -25 -11 -48 -25 -92 -56 -16
-12 -43 -28 -60 -37 -16 -8 -49 -33 -73 -55 -23 -22 -71 -59 -105 -83 -193
-132 -422 -342 -488 -444 -40 -63 -96 -142 -116 -162 -20 -22 -151 -298 -158
-333 -14 -76 -30 -112 -59 -132 -29 -21 -237 -193 -301 -250 -16 -14 -75 -66
-130 -114 -55 -48 -104 -94 -109 -102 -4 -8 -16 -22 -25 -31 -9 -9 -25 -30
-36 -46 -11 -16 -69 -82 -130 -147 -60 -66 -135 -149 -165 -186 -101 -124
-514 -538 -735 -737 -22 -20 -49 -45 -60 -55 -93 -83 -311 -184 -376 -174 -23
4 -39 2 -44 -6 -19 -31 68 -52 118 -27 18 9 68 30 112 47 90 35 208 119 345
248 47 43 97 90 111 103 151 138 358 344 387 384 20 28 66 82 103 120 130 136
229 246 270 298 45 58 75 89 208 222 193 194 402 369 530 444 49 29 101 63
115 76 14 13 61 40 103 61 43 20 94 44 113 54 53 27 320 127 360 135 19 4 40
11 45 15 6 4 37 13 70 20 226 44 235 46 242 67 8 22 -35 23 -123 4 -49 -11
-107 -25 -129 -31 -22 -7 -68 -18 -102 -26 -70 -16 -158 -48 -249 -89 -32 -15
-79 -34 -104 -41 -25 -8 -61 -23 -80 -34 -19 -11 -55 -30 -80 -42 -25 -13 -71
-41 -103 -62 -32 -21 -61 -36 -64 -32 -4 3 3 27 14 54 12 26 36 81 53 122 51
116 125 238 231 380 55 74 286 288 391 364 39 28 99 72 132 99 34 26 87 64
120 85 32 20 72 47 90 59 17 12 77 45 133 72 55 27 123 65 150 84 53 37 113
71 113 63 0 -3 30 9 67 26 82 37 256 98 279 98 10 0 43 9 73 19 31 11 88 27
126 36 170 40 252 57 285 61 33 4 542 4 642 1 61 -2 62 15 1 30 -63 16 -334
36 -391 29 -26 -3 -83 -8 -127 -12 -86 -6 -203 -21 -241 -30 -13 -4 -24 -2
-24 3 0 20 83 67 204 114 28 12 55 24 61 29 19 14 220 79 270 86 28 4 60 11
73 15 56 21 330 41 492 36 199 -6 274 -25 345 -87 54 -47 67 -54 131 -76 65
-22 110 -58 141 -113 50 -89 77 -122 127 -159 152 -110 236 -194 236 -236 0
-22 -33 -20 -55 4 -22 25 -85 27 -120 4 -19 -12 -25 -25 -25 -52 0 -31 10 -44
83 -114 171 -165 189 -184 208 -220 20 -39 25 -78 10 -78 -5 0 -22 10 -38 23
-94 76 -157 77 -189 2 -15 -36 -7 -72 28 -130 9 -16 40 -74 68 -128 45 -89 50
-105 55 -185 8 -134 -11 -165 -40 -64 -31 109 -98 202 -145 202 -53 0 -74 -62
-71 -208 1 -41 -3 -99 -9 -130 -12 -57 -84 -202 -100 -202 -5 0 -8 33 -7 74 2
93 -18 129 -77 134 -31 3 -42 -2 -68 -30 -36 -39 -57 -83 -64 -141 -14 -100
-67 -202 -103 -195 -11 2 -14 17 -12 65 2 56 0 63 -22 78 -23 15 -27 14 -60
-1 -27 -13 -44 -33 -68 -78 -33 -63 -114 -156 -136 -156 -25 0 -22 20 12 92
26 54 34 81 29 103 -14 69 -68 68 -163 -6 -36 -27 -71 -49 -78 -49 -17 0 -17
35 1 49 14 12 58 126 51 133 -2 2 -6 26 -9 53 -13 112 -120 127 -204 29 -142
-169 -167 -193 -199 -194 -18 0 -34 36 -38 87 -10 118 -97 135 -173 33 -18
-25 -39 -53 -47 -62 -7 -9 -18 -26 -25 -37 -6 -12 -19 -21 -30 -21 -14 0 -20
9 -25 38 -18 125 -25 147 -55 175 -39 35 -63 34 -110 -3 -55 -44 -78 -86 -104
-192 -12 -51 -27 -92 -31 -91 -5 1 -17 23 -27 50 -32 81 -80 104 -118 56 -20
-25 -22 -36 -17 -100 7 -88 -2 -92 -62 -27 -36 37 -48 45 -74 42 -66 -7 -89
-95 -47 -178 23 -46 26 -90 6 -90 -8 0 -30 23 -50 50 -33 46 -39 50 -76 50
-37 0 -40 -2 -51 -41 -11 -35 -10 -49 10 -109 12 -38 28 -75 34 -82 7 -7 28
-35 47 -63 18 -27 70 -97 114 -154 146 -187 155 -200 171 -230 18 -35 20 -87
4 -97 -6 -3 -38 21 -73 55 -61 61 -81 70 -116 51 -31 -17 -31 -53 -1 -143 16
-48 26 -89 23 -92 -15 -15 -35 0 -71 53 -21 31 -49 67 -60 80 -27 28 -81 30
-105 3 -18 -19 -36 -109 -36 -177 0 -22 -7 -49 -15 -60 -14 -18 -16 -18 -29
-1 -8 10 -22 41 -31 69 -19 59 -93 150 -140 172 -43 21 -92 6 -151 -45 -55
-47 -85 -49 -94 -4 -24 107 -36 146 -57 190 -25 54 -66 85 -111 85 -74 -1
-167 -79 -196 -166 -28 -83 -76 -121 -76 -60 0 35 -28 109 -47 124 -28 20 -77
15 -102 -12 -12 -12 -33 -54 -47 -92 -13 -38 -33 -78 -44 -88 -19 -19 -19 -19
-29 5 -5 13 -17 50 -26 82 -13 48 -22 61 -55 83 -37 25 -46 26 -113 21 -176
-13 -370 -141 -626 -411 -201 -212 -212 -228 -310 -441 -59 -129 -155 -386
-166 -446 -2 -11 -16 -58 -30 -104 -15 -47 -28 -95 -30 -107 -2 -13 -11 -52
-20 -88 -23 -97 -34 -150 -39 -199 -3 -25 -10 -67 -15 -95 -15 -77 -31 -311
-26 -399 5 -108 23 -187 41 -187 12 0 13 8 8 38 -9 46 -9 413 0 479 9 63 51
261 82 388 13 55 27 117 29 139 3 21 14 59 25 84 11 25 27 73 36 106 9 34 20
66 24 71 5 6 17 44 28 85 11 41 39 111 61 155 23 44 50 103 61 132 36 96 173
271 365 467 33 33 125 105 205 158 164 109 256 145 337 133 48 -7 83 -34 83
-63 0 -10 7 -39 15 -64 18 -50 46 -71 91 -66 23 2 34 12 51 48 12 25 25 57 28
73 3 15 18 41 33 58 41 45 50 34 90 -111 6 -19 15 -26 38 -28 45 -4 77 27 104
100 25 71 57 111 112 139 38 19 62 16 99 -13 23 -19 48 -71 54 -115 18 -128
28 -149 79 -158 46 -9 68 -1 122 46 50 43 62 46 102 25 50 -26 71 -57 125
-188 19 -45 62 -76 85 -62 38 24 53 60 63 154 10 89 20 120 40 120 4 0 35 -36
69 -80 66 -87 94 -103 135 -76 32 21 32 56 0 142 -43 115 -29 123 63 34 33
-33 68 -60 77 -60 22 0 55 59 55 97 0 56 -87 195 -217 344 -77 89 -183 268
-183 310 0 9 7 23 16 30 14 11 19 10 35 -11 51 -68 61 -78 86 -83 67 -13 94
53 54 132 -24 46 -31 90 -19 114 14 27 34 20 70 -24 78 -97 131 -65 126 76 -3
59 0 70 15 73 9 2 17 -1 17 -7 0 -6 9 -35 21 -66 20 -53 21 -55 58 -55 21 0
43 6 49 13 7 7 22 59 36 114 13 56 29 110 35 121 25 46 99 80 116 53 3 -5 8
-36 11 -68 8 -87 22 -131 48 -148 47 -31 86 -2 170 122 29 44 61 62 78 45 5
-5 17 -41 27 -80 24 -93 26 -95 73 -89 60 8 111 48 180 142 70 94 114 124 154
106 19 -8 24 -19 26 -48 3 -66 -1 -88 -27 -147 -14 -31 -25 -69 -25 -84 0 -18
-18 -48 -51 -87 -55 -66 -169 -289 -193 -376 -31 -112 -39 -136 -68 -204 -17
-38 -33 -83 -35 -99 -1 -17 -12 -64 -22 -105 -23 -89 -36 -167 -52 -310 -16
-143 6 -334 62 -536 6 -21 13 -53 15 -70 5 -40 118 -382 150 -455 49 -112 99
-197 158 -271 77 -96 250 -256 341 -317 39 -25 75 -51 81 -57 6 -5 35 -21 65
-34 30 -13 77 -34 104 -46 113 -52 217 -78 310 -79 123 -2 295 11 330 24 24 9
26 13 14 25 -11 11 -25 12 -64 4 -27 -5 -120 -11 -205 -12 -146 -2 -160 0
-245 27 -49 15 -98 30 -108 32 -11 2 -25 8 -32 14 -7 6 -63 36 -124 68 -102
53 -226 143 -275 201 -12 14 -48 52 -82 85 -90 89 -141 157 -170 223 -14 32
-43 94 -64 138 -21 44 -46 107 -54 140 -8 33 -33 112 -56 177 -22 64 -40 127
-40 140 0 12 -7 42 -15 65 -8 24 -17 62 -19 85 -3 24 -9 66 -15 93 -30 149
-34 237 -17 360 10 66 21 153 26 193 8 66 51 224 71 262 25 47 49 116 54 153
6 50 28 111 70 193 25 48 45 92 45 99 0 12 68 111 115 167 17 19 42 38 56 41
14 4 44 22 65 41 57 51 58 52 83 66 20 10 26 9 40 -5 15 -15 13 -21 -21 -85
-57 -105 -50 -150 24 -150 52 0 106 50 158 148 23 42 48 84 56 92 24 25 37 -3
35 -74 -2 -55 1 -66 18 -75 62 -34 158 87 180 226 11 68 28 108 59 136 20 18
21 18 41 -2 18 -18 21 -33 21 -95 0 -41 3 -81 6 -90 8 -22 67 -21 86 2 22 25
67 108 72 135 3 12 10 38 16 57 7 19 13 95 16 169 2 104 7 138 19 150 14 14
18 12 44 -14 16 -17 45 -70 64 -119 43 -109 59 -131 87 -116 59 31 69 137 25
263 -14 40 -27 79 -29 87 -8 29 -27 75 -34 80 -15 11 -62 87 -72 117 -14 39 1
73 31 73 26 0 89 -33 113 -59 24 -27 72 -28 86 -2 37 70 -49 206 -203 320 -65
48 -105 106 -90 130 17 27 39 24 73 -9 41 -40 87 -39 110 2 13 25 13 32 -3 75
-10 29 -30 58 -50 73 -17 14 -48 42 -67 62 -19 21 -64 57 -100 80 -48 32 -76
60 -107 108 -23 36 -54 80 -68 97 -29 35 -108 93 -128 93 -22 1 -98 40 -115
59 -27 31 -143 89 -192 95 -56 8 -204 12 -290 9z"/>
<path d="M6116 6082 c-3 -5 11 -24 30 -43 40 -38 74 -98 74 -129 0 -25 -4 -25
-40 1 -28 21 -30 21 -55 5 -23 -15 -26 -23 -22 -54 21 -140 21 -144 1 -140
-11 2 -30 25 -46 57 -39 76 -56 93 -92 89 -40 -4 -45 -26 -7 -39 21 -7 36 -24
51 -55 27 -56 72 -104 97 -104 12 0 27 13 38 33 16 30 16 41 6 99 -6 35 -11
67 -11 70 0 4 18 -3 39 -15 39 -21 40 -21 60 -3 37 34 23 107 -36 189 -25 33
-42 47 -58 47 -13 0 -26 -4 -29 -8z"/>
<path d="M7004 6048 c-24 -11 -47 -52 -36 -63 4 -4 7 -12 7 -18 0 -6 14 -16
32 -23 28 -12 34 -11 57 7 31 24 35 68 8 92 -21 19 -37 20 -68 5z m46 -52 c0
-20 -19 -31 -32 -18 -6 6 -7 15 -4 21 10 16 36 13 36 -3z"/>
<path d="M7356 5949 c-31 -24 -34 -59 -7 -83 33 -30 87 12 75 58 -10 40 -37
50 -68 25z"/>
<path d="M4918 5714 c-14 -13 -8 -45 12 -71 20 -26 28 -93 11 -93 -5 0 -14 14
-21 30 -14 35 -59 70 -87 70 -32 0 -49 -31 -52 -95 -3 -69 -25 -129 -43 -123
-7 2 -27 30 -43 61 -33 61 -72 107 -90 107 -6 0 -21 -10 -33 -23 -19 -20 -22
-35 -22 -98 0 -159 -58 -227 -91 -107 -12 46 -52 91 -76 86 -25 -5 -51 -49
-57 -98 -13 -110 -47 -193 -74 -176 -5 3 -12 36 -15 73 -10 131 -42 222 -68
196 -9 -9 -9 -20 0 -43 6 -18 13 -69 16 -114 8 -123 14 -145 39 -161 53 -35
110 35 142 172 28 124 35 128 55 38 15 -66 35 -88 81 -83 28 3 36 10 57 52 17
34 25 70 28 125 3 42 7 82 9 90 7 23 52 -31 70 -82 9 -28 25 -49 45 -61 29
-17 31 -17 51 1 36 32 58 89 58 148 0 87 33 86 78 -2 25 -48 42 -57 70 -37 45
31 39 131 -11 189 -18 20 -35 33 -39 29z"/>
<path d="M5845 5520 c-4 -6 0 -19 8 -28 8 -9 25 -37 37 -61 26 -52 15 -73 -20
-36 -28 30 -79 34 -103 7 -12 -13 -15 -32 -12 -81 4 -60 -6 -101 -24 -101 -4
0 -17 19 -27 42 -32 72 -60 98 -105 98 -57 0 -74 -31 -74 -135 0 -89 -6 -105
-38 -105 -17 1 -28 14 -48 58 -19 42 -35 62 -62 77 -71 38 -122 -12 -136 -136
-12 -102 -48 -106 -61 -7 -4 29 -15 70 -23 91 -14 31 -21 37 -46 37 -35 0 -42
-21 -13 -42 27 -19 32 -31 43 -100 12 -72 30 -98 70 -98 39 0 58 32 70 116 10
70 30 114 52 114 25 0 54 -30 65 -68 17 -58 48 -92 82 -92 44 0 59 9 80 50 15
30 18 50 13 106 -5 58 -3 72 12 84 24 20 44 4 75 -57 46 -92 73 -105 109 -54
16 22 21 45 21 93 0 89 9 99 55 59 27 -23 42 -30 58 -25 56 16 62 79 15 150
-33 49 -60 65 -73 44z"/>
<path d="M7380 5522 c-34 -11 -50 -35 -50 -79 0 -40 3 -45 35 -60 34 -16 36
-16 59 6 57 53 23 154 -44 133z m28 -69 c-2 -20 -9 -28 -23 -28 -23 0 -33 34
-13 46 26 17 39 10 36 -18z"/>
<path d="M6958 4299 c-13 -7 -18 -23 -18 -60 0 -61 13 -89 43 -89 36 0 49 15
54 64 9 74 -29 114 -79 85z m33 -91 l-9 -23 -7 27 c-8 33 3 58 16 35 5 -9 5
-25 0 -39z"/>
<path d="M3376 4182 c-3 -5 19 -33 48 -64 51 -53 77 -111 58 -130 -4 -4 -30 8
-57 27 -59 42 -111 48 -124 13 -5 -14 -2 -43 6 -76 14 -54 12 -82 -6 -82 -5 0
-34 25 -64 55 -58 59 -85 67 -126 39 -20 -14 -22 -22 -17 -58 4 -22 16 -58 27
-80 11 -21 18 -41 15 -44 -3 -3 -33 12 -66 32 -63 39 -95 43 -114 14 -10 -16
-7 -31 21 -130 10 -35 -33 -18 -97 37 -36 31 -74 58 -87 61 -39 10 -61 -19
-23 -31 11 -3 51 -35 90 -71 74 -67 98 -76 138 -48 26 18 29 56 7 108 -14 33
-14 37 0 42 9 4 34 -8 62 -30 55 -43 90 -44 112 -6 12 23 11 31 -13 81 -14 31
-26 61 -26 67 0 28 26 20 68 -21 62 -59 86 -71 111 -55 35 21 43 48 31 107 -5
29 -7 57 -4 63 3 5 21 -3 40 -17 44 -33 99 -56 118 -49 8 3 20 19 26 35 18 42
-9 106 -70 169 -46 47 -72 60 -84 42z"/>
<path d="M6570 4054 c-36 -25 -50 -45 -50 -74 0 -57 42 -65 95 -19 69 61 29
142 -45 93z m35 -55 c0 -7 -8 -15 -17 -17 -18 -3 -25 18 -11 32 10 10 28 1 28
-15z"/>
<path d="M6921 3944 c-22 -27 -17 -60 11 -78 37 -23 81 34 60 79 -15 32 -45
32 -71 -1z"/>
<path d="M5228 3841 c-66 -58 -148 -245 -182 -416 -78 -392 -90 -500 -82 -755
11 -398 39 -573 153 -949 14 -47 27 -92 28 -100 2 -9 4 -16 5 -16 1 0 3 -7 5
-15 1 -8 16 -55 33 -105 68 -199 109 -303 134 -335 14 -19 42 -62 61 -95 44
-75 73 -106 92 -99 16 7 10 24 -22 60 -10 11 -23 29 -30 40 -72 117 -99 166
-124 226 -16 39 -29 77 -29 84 0 7 -25 82 -55 166 -31 84 -58 169 -60 188 -5
37 -14 72 -64 238 -17 57 -33 115 -35 130 -2 15 -9 59 -14 97 -20 130 -35 524
-28 680 12 240 28 391 45 425 5 8 11 34 15 57 11 73 82 306 110 361 15 29 42
70 61 91 19 21 35 43 35 49 0 24 -20 21 -52 -7z"/>
<path d="M6706 3654 c-17 -16 -20 -41 -10 -68 12 -33 84 -8 84 28 0 49 -42 72
-74 40z"/>
<path d="M1692 3072 c-56 -29 -212 -165 -212 -186 0 -6 -25 -36 -56 -66 -31
-30 -92 -100 -137 -155 -44 -55 -83 -102 -86 -105 -3 -3 -22 -28 -42 -57 -19
-29 -75 -94 -123 -144 -48 -51 -106 -120 -128 -153 -23 -34 -72 -90 -109 -126
-65 -61 -84 -90 -58 -90 22 0 157 131 184 178 15 26 73 93 129 148 55 56 132
144 169 195 139 191 190 251 362 425 51 52 98 89 129 102 69 31 84 29 91 -12
8 -39 -21 -256 -36 -271 -5 -5 -9 -16 -9 -26 0 -17 -40 -120 -50 -129 -7 -6
-74 -178 -77 -198 -5 -36 -147 -342 -193 -417 -18 -29 -111 -260 -143 -355 -8
-25 -22 -63 -30 -85 -9 -22 -38 -114 -66 -205 -50 -160 -61 -195 -94 -290 -71
-205 -92 -356 -48 -348 12 3 18 25 27 98 6 52 15 104 21 115 5 11 18 52 28 90
10 39 38 129 62 200 25 72 53 162 64 200 10 39 31 99 45 135 14 36 31 76 36
90 5 14 21 59 34 100 13 41 38 104 55 140 48 100 100 203 110 220 11 18 93
193 97 206 7 26 51 144 65 177 38 84 49 112 53 131 2 11 15 43 28 71 35 70 66
212 66 299 0 64 -3 76 -25 100 -31 33 -65 33 -133 -2z"/>
<path d="M3426 2919 c-31 -89 -86 -296 -90 -337 -3 -29 -8 -57 -11 -62 -6 -11
-35 -174 -40 -230 -13 -155 -17 -352 -6 -396 6 -27 13 -65 16 -84 2 -19 13
-68 24 -107 10 -40 17 -73 16 -73 -5 0 46 -138 84 -230 18 -41 34 -83 36 -92
7 -33 84 -188 93 -188 5 0 14 -12 20 -26 18 -37 65 -94 80 -94 20 0 14 20 -22
69 -47 66 -137 244 -165 326 -12 39 -27 79 -31 90 -38 90 -86 249 -97 325 -10
65 -17 343 -11 410 4 41 8 89 9 105 1 17 8 67 15 111 13 79 20 111 79 324 14
52 27 107 29 122 4 30 -20 61 -28 37z"/>
<path d="M4511 2901 c-27 -38 -27 -73 2 -107 29 -33 60 -26 87 19 47 77 -38
160 -89 88z m55 -65 c-3 -14 -11 -26 -16 -26 -11 0 -14 53 -3 64 13 12 26 -13
19 -38z"/>
<path d="M2888 2908 c-20 -16 -124 -241 -138 -299 -82 -349 -91 -402 -95 -614
-3 -194 16 -480 34 -498 22 -22 33 5 27 62 -4 31 -11 146 -16 255 -9 188 -3
292 24 496 21 150 91 377 158 507 29 57 39 86 32 93 -7 7 -15 6 -26 -2z"/>
<path d="M4253 2818 c-17 -20 -64 -163 -69 -210 -3 -24 -9 -59 -14 -78 -34
-136 -69 -621 -47 -657 3 -5 9 -36 12 -69 3 -32 9 -67 12 -77 3 -11 7 -29 8
-40 8 -44 34 -155 54 -223 51 -174 59 -201 74 -236 9 -20 18 -53 21 -73 6 -35
85 -218 114 -262 8 -13 11 -23 8 -23 -7 0 23 -62 34 -70 4 -3 19 -27 34 -55
33 -64 86 -155 108 -186 13 -19 19 -22 29 -12 14 14 -1 48 -67 149 -84 128
-240 481 -259 585 -3 15 -19 69 -35 120 -17 51 -38 124 -46 163 -9 39 -20 78
-25 87 -23 45 -37 310 -27 522 5 106 9 199 9 207 1 37 54 263 80 340 24 70 27
87 16 98 -11 11 -16 11 -24 0z"/>
<path d="M4296 2638 c-29 -42 -15 -98 24 -98 23 0 60 42 60 67 0 49 -57 70
-84 31z"/>
</g>
</svg>
